<svg width="90" height="28" viewBox="0 0 90 28" fill="none" xmlns="http://www.w3.org/2000/svg">
<path d="M20.8124 12.1751C20.4334 12.5564 20.1432 13.0166 19.9624 13.5228C19.7816 14.0291 19.7147 14.569 19.7664 15.1041L19.7484 15.0861C19.8016 15.716 19.7166 16.3498 19.4995 16.9435C19.2824 17.5371 18.9384 18.0762 18.4915 18.5232C18.0445 18.9701 17.5054 19.3142 16.9117 19.5312C16.3181 19.7483 15.6842 19.8333 15.0544 19.7801L15.0724 19.7981C14.319 19.728 13.5623 19.8919 12.9054 20.2676C12.2486 20.6433 11.7236 21.2124 11.4021 21.8974C11.0806 22.5824 10.9781 23.3498 11.1087 24.0952C11.2394 24.8405 11.5967 25.5274 12.132 26.0622C12.6673 26.597 13.3545 26.9537 14.0999 27.0836C14.8454 27.2136 15.6127 27.1104 16.2974 26.7883C16.9821 26.4661 17.5507 25.9407 17.9258 25.2835C18.3009 24.6263 18.4642 23.8695 18.3934 23.1161L18.4124 23.1341C18.3592 22.5043 18.4441 21.8704 18.6612 21.2767C18.8783 20.6831 19.2224 20.144 19.6693 19.697C20.1163 19.2501 20.6554 18.906 21.249 18.689C21.8427 18.4719 22.4765 18.3869 23.1064 18.4401L23.0874 18.4221C23.7028 18.4774 24.3223 18.3765 24.8884 18.1287C25.4544 17.8809 25.9488 17.4942 26.3256 17.0045C26.7024 16.5148 26.9496 15.9378 27.044 15.3272C27.1385 14.7165 27.0773 14.0919 26.8661 13.5111C26.6549 12.9304 26.3005 12.4124 25.8358 12.0051C25.3711 11.5978 24.8111 11.3144 24.2077 11.1812C23.6043 11.048 22.977 11.0692 22.384 11.2429C21.791 11.4167 21.2515 11.7373 20.8154 12.1751H20.8124Z" fill="url(#paint0_linear_1_11)"/>
<path d="M13.4353 17.4401L13.4163 17.4221C13.9516 17.476 14.4922 17.4103 14.9991 17.2297C15.5059 17.0491 15.9663 16.7582 16.3469 16.3779C16.7274 15.9976 17.0188 15.5374 17.1997 15.0307C17.3807 14.524 17.4468 13.9835 17.3933 13.4481L17.4123 13.4661C17.3591 12.8362 17.4441 12.2024 17.6611 11.6087C17.8782 11.0151 18.2223 10.476 18.6692 10.029C19.1162 9.5821 19.6553 9.238 20.2489 9.021C20.8426 8.80383 21.4764 8.7189 22.1063 8.77207L22.0873 8.75407C22.8408 8.82487 23.5977 8.66143 24.2549 8.28617C24.9122 7.91091 25.4376 7.34204 25.7596 6.65717C26.0816 5.97231 26.1845 5.20478 26.0543 4.45927C25.9241 3.71376 25.5671 3.02658 25.0319 2.49144C24.4968 1.95631 23.8096 1.59927 23.0641 1.46905C22.3186 1.33882 21.5511 1.44173 20.8662 1.76375C20.1813 2.08576 19.6125 2.61121 19.2372 3.26842C18.8619 3.92562 18.6985 4.68259 18.7693 5.43607L18.7513 5.41707C18.8046 6.04696 18.7198 6.6809 18.5028 7.27462C18.2858 7.86834 17.9417 8.40753 17.4948 8.85457C17.0478 9.3015 16.5086 9.6456 15.9149 9.8626C15.3211 10.0796 14.6872 10.1644 14.0573 10.1111L14.0753 10.1301C13.54 10.0762 12.9993 10.1419 12.4925 10.3225C11.9857 10.503 11.5253 10.794 11.1447 11.1743C10.7641 11.5546 10.4728 12.0148 10.2918 12.5215C10.1109 13.0282 10.0448 13.5687 10.0983 14.1041L10.0803 14.0861C10.1333 14.7159 10.0482 15.3497 9.83114 15.9433C9.61394 16.5368 9.26994 17.0759 8.82304 17.5228C8.3761 17.9697 7.83706 18.3137 7.2435 18.5309C6.64994 18.748 6.01615 18.8331 5.38634 18.7801L5.40434 18.7981C4.65086 18.7273 3.89389 18.8907 3.23668 19.266C2.57948 19.6413 2.05403 20.2101 1.73202 20.895C1.41 21.5799 1.30708 22.3474 1.43731 23.0929C1.56754 23.8384 1.92458 24.5256 2.45971 25.0607C2.99485 25.5959 3.68203 25.9529 4.42754 26.0831C5.17305 26.2133 5.94058 26.1104 6.62545 25.7884C7.31031 25.4664 7.87918 24.941 8.25444 24.2838C8.62974 23.6265 8.79314 22.8696 8.72234 22.1161L8.74134 22.1341C8.68814 21.5042 8.77314 20.8704 8.99024 20.2767C9.20724 19.6831 9.55134 19.144 9.99824 18.697C10.4452 18.2501 10.9843 17.906 11.5779 17.689C12.1716 17.4719 12.8054 17.3869 13.4353 17.4401Z" fill="url(#paint1_linear_1_11)"/>
<path d="M6.73328 15.433C7.1123 15.0518 7.40248 14.5916 7.58312 14.0853C7.76376 13.579 7.8304 13.039 7.77828 12.504L7.79727 12.522C7.74407 11.892 7.82903 11.2579 8.04624 10.6641C8.26345 10.0703 8.60768 9.5311 9.05488 9.0841C9.50208 8.63714 10.0414 8.29315 10.6353 8.0762C11.2292 7.85924 11.8633 7.77454 12.4933 7.82802L12.4743 7.81002C13.2275 7.88059 13.9842 7.7171 14.6411 7.34186C15.298 6.96663 15.8231 6.3979 16.145 5.71325C16.4668 5.02859 16.5696 4.26134 16.4394 3.51611C16.3092 2.77088 15.9522 2.08396 15.4173 1.54902C14.8824 1.01408 14.1954 0.657156 13.4502 0.526936C12.705 0.396706 11.9377 0.499526 11.2531 0.821346C10.5684 1.14317 9.99968 1.66834 9.62448 2.32524C9.24918 2.98214 9.08568 3.7388 9.15628 4.49202L9.13828 4.47402C9.19148 5.10387 9.10648 5.73774 8.88938 6.33138C8.67228 6.92502 8.3283 7.46413 7.88134 7.91109C7.43439 8.35805 6.89527 8.70208 6.30163 8.91912C5.70799 9.1362 5.07413 9.2212 4.44428 9.168L4.46228 9.186C3.84685 9.1308 3.22744 9.2319 2.66146 9.4798C2.09548 9.7277 1.60123 10.1145 1.22452 10.6043C0.847808 11.094 0.600828 11.671 0.506448 12.2816C0.412078 12.8923 0.473368 13.5169 0.684638 14.0975C0.895908 14.6782 1.25034 15.1961 1.71507 15.6033C2.1798 16.0106 2.7398 16.2939 3.34318 16.4271C3.94655 16.5602 4.57378 16.5389 5.16675 16.3652C5.75971 16.1914 6.29921 15.8708 6.73527 15.433H6.73328Z" fill="url(#paint2_linear_1_11)"/>
<path d="M34.28 7.20001H41.408C43.008 7.20001 44.224 7.61601 45.056 8.44801C45.904 9.28001 46.328 10.488 46.328 12.072C46.328 13.672 45.904 14.888 45.056 15.72C44.224 16.552 43.008 16.968 41.408 16.968H36.008V24H34.28V7.20001ZM41.264 15.576C42.32 15.576 43.136 15.272 43.712 14.664C44.304 14.04 44.6 13.176 44.6 12.072C44.6 10.984 44.304 10.136 43.712 9.52801C43.136 8.90401 42.32 8.59201 41.264 8.59201H36.008V15.576H41.264ZM57.3781 21.96C57.3781 22.248 57.4261 22.488 57.5221 22.68C57.6341 22.856 57.8341 23.064 58.1221 23.304L57.0421 24.264C56.6421 24.04 56.3461 23.784 56.1541 23.496C55.9621 23.208 55.8501 22.832 55.8181 22.368C55.4021 22.976 54.8341 23.448 54.1141 23.784C53.3941 24.104 52.5861 24.264 51.6901 24.264C50.4741 24.264 49.5381 23.984 48.8821 23.424C48.2261 22.848 47.8981 22.024 47.8981 20.952C47.8981 19.96 48.2421 19.184 48.9301 18.624C49.6181 18.064 50.6581 17.704 52.0501 17.544L53.9221 17.328C54.4501 17.264 54.8421 17.184 55.0981 17.088C55.3701 16.992 55.5541 16.856 55.6501 16.68C55.7461 16.488 55.7861 16.224 55.7701 15.888C55.6261 14.4 54.5861 13.656 52.6501 13.656C51.9301 13.656 51.3141 13.776 50.8021 14.016C50.2901 14.24 49.8501 14.6 49.4821 15.096L48.3781 14.28C49.1301 13.064 50.5541 12.456 52.6501 12.456C54.1861 12.456 55.3541 12.784 56.1541 13.44C56.9701 14.096 57.3781 15.04 57.3781 16.272V21.96ZM52.0501 23.016C53.1701 23.016 54.0741 22.728 54.7621 22.152C55.4501 21.576 55.7941 20.816 55.7941 19.872V17.928C55.6021 18.072 55.3701 18.184 55.0981 18.264C54.8261 18.328 54.4501 18.384 53.9701 18.432L52.1941 18.624C51.2821 18.736 50.5861 18.992 50.1061 19.392C49.6421 19.776 49.4101 20.288 49.4101 20.928C49.4101 22.32 50.2901 23.016 52.0501 23.016ZM62.4583 14.016V20.736C62.4583 22.16 63.0823 22.872 64.3303 22.872H65.6983V24.144H64.3303C63.1303 24.144 62.2503 23.872 61.6903 23.328C61.1303 22.768 60.8503 21.904 60.8503 20.736V10.104C60.8503 9.81601 60.7943 9.58401 60.6823 9.40801C60.5863 9.21601 60.3943 9.00001 60.1063 8.76001L61.1863 7.80001C61.6663 8.07201 61.9943 8.38401 62.1703 8.73601C62.3623 9.07201 62.4583 9.54401 62.4583 10.152V12.72H65.6983V14.016H62.4583ZM74.3441 12.456C75.4801 12.456 76.3601 12.792 76.9841 13.464C77.6241 14.136 77.9441 15.08 77.9441 16.296V24H76.3361V16.536C76.3361 15.656 76.1281 14.976 75.7121 14.496C75.2961 14 74.7121 13.752 73.9601 13.752C73.0961 13.752 72.3441 14.072 71.7041 14.712C71.0641 15.336 70.6081 16.208 70.3361 17.328V24H68.7281V8.90401C68.7281 8.60001 68.6721 8.36001 68.5601 8.18401C68.4641 7.99201 68.2721 7.78401 67.9841 7.56001L69.0401 6.60001C69.5361 6.87201 69.8721 7.18401 70.0481 7.53601C70.2401 7.87201 70.3361 8.34401 70.3361 8.95201V15.072C70.7201 14.24 71.2561 13.6 71.9441 13.152C72.6481 12.688 73.4481 12.456 74.3441 12.456ZM84.9982 24.264C84.0542 24.264 83.2462 24.112 82.5742 23.808C81.9182 23.504 81.3182 23.008 80.7742 22.32L81.8062 21.432C82.3022 21.992 82.7902 22.392 83.2702 22.632C83.7502 22.856 84.3262 22.968 84.9982 22.968C85.9582 22.968 86.6862 22.8 87.1822 22.464C87.6782 22.128 87.9262 21.64 87.9262 21C87.9262 20.6 87.8302 20.28 87.6382 20.04C87.4462 19.8 87.1102 19.592 86.6302 19.416C86.1502 19.24 85.4222 19.064 84.4462 18.888C82.2062 18.488 81.0862 17.416 81.0862 15.672C81.0862 14.664 81.4462 13.88 82.1662 13.32C82.9022 12.744 83.9102 12.456 85.1902 12.456C86.1022 12.456 86.8942 12.616 87.5662 12.936C88.2542 13.24 88.7742 13.688 89.1262 14.28L88.0942 15.144C87.7262 14.664 87.3022 14.312 86.8222 14.088C86.3582 13.864 85.8142 13.752 85.1902 13.752C84.3902 13.752 83.7582 13.92 83.2942 14.256C82.8462 14.592 82.6222 15.056 82.6222 15.648C82.6222 16.176 82.8062 16.584 83.1742 16.872C83.5582 17.16 84.2222 17.4 85.1662 17.592C86.2702 17.832 87.1262 18.096 87.7342 18.384C88.3582 18.656 88.7982 19 89.0542 19.416C89.3262 19.832 89.4622 20.36 89.4622 21C89.4622 22.072 89.0782 22.888 88.3102 23.448C87.5582 23.992 86.4542 24.264 84.9982 24.264Z" fill="#1E1E1E"/>
<defs>
<linearGradient id="paint0_linear_1_11" x1="19.0703" y1="11.0948" x2="19.0703" y2="27.1383" gradientUnits="userSpaceOnUse">
<stop stop-color="#9BFFAB"/>
<stop offset="1" stop-color="#9BB7FF"/>
</linearGradient>
<linearGradient id="paint1_linear_1_11" x1="13.7458" y1="1.41418" x2="13.7458" y2="26.1379" gradientUnits="userSpaceOnUse">
<stop stop-color="#9BFFAB"/>
<stop offset="1" stop-color="#9BB7FF"/>
</linearGradient>
<linearGradient id="paint2_linear_1_11" x1="8.47882" y1="0.472046" x2="8.47882" y2="16.5133" gradientUnits="userSpaceOnUse">
<stop stop-color="#9BFFAB"/>
<stop offset="1" stop-color="#9BB7FF"/>
</linearGradient>
</defs>
</svg>
