<svg width="459" height="120" viewBox="0 0 459 120" fill="none" xmlns="http://www.w3.org/2000/svg">
<path d="M91.718 52.6646C90.0097 54.3805 88.7017 56.4514 87.8868 58.7293C87.0719 61.0077 86.7704 63.4373 87.0034 65.8453L86.9223 65.7643C87.162 68.5989 86.7789 71.4511 85.8004 74.1228C84.8219 76.794 83.2714 79.22 81.2571 81.2315C79.2424 83.2426 76.8125 84.7911 74.1365 85.7676C71.461 86.7446 68.6039 87.1271 65.7652 86.8877L65.8463 86.9687C62.4506 86.6532 59.0399 87.3908 56.0791 89.0815C53.1188 90.7722 50.7525 93.3332 49.3034 96.4157C47.8543 99.4983 47.3923 102.952 47.9809 106.306C48.57 109.66 50.1805 112.751 52.5932 115.158C55.006 117.564 58.1033 119.169 61.463 119.754C64.8232 120.339 68.2816 119.875 71.3677 118.425C74.4538 116.975 77.0167 114.611 78.7073 111.653C80.398 108.696 81.134 105.29 80.8149 101.9L80.9006 101.981C80.6608 99.1468 81.0434 96.2942 82.022 93.6225C83.0005 90.9513 84.5514 88.5253 86.5657 86.5137C88.5805 84.5026 91.0103 82.9542 93.6858 81.9776C96.3618 81.0007 99.2185 80.6182 102.058 80.8576L101.972 80.7766C104.746 81.0254 107.538 80.5714 110.09 79.4563C112.641 78.3411 114.869 76.601 116.567 74.3973C118.266 72.1936 119.38 69.597 119.805 66.8493C120.231 64.1011 119.955 61.2903 119.004 58.6767C118.052 56.0635 116.454 53.7325 114.36 51.8996C112.265 50.0667 109.741 48.7914 107.021 48.192C104.302 47.5925 101.474 47.6879 98.8016 48.4696C96.1288 49.2517 93.6971 50.6945 91.7315 52.6646H91.718Z" fill="black"/>
<path d="M58.4677 76.3577L58.382 76.2767C60.7948 76.5192 63.2314 76.2235 65.5161 75.4108C67.8004 74.5981 69.8755 73.289 71.591 71.5777C73.306 69.8663 74.6194 67.7954 75.4348 65.5152C76.2506 63.235 76.5485 60.8027 76.3074 58.3933L76.393 58.4743C76.1532 55.6397 76.5364 52.7876 77.5144 50.1159C78.493 47.4446 80.0439 45.0187 82.0582 43.0071C84.0729 40.996 86.5028 39.4476 89.1783 38.471C91.8542 37.4938 94.711 37.1116 97.5501 37.3508L97.4644 37.2698C100.861 37.5884 104.272 36.8529 107.234 35.1642C110.197 33.4755 112.565 30.9156 114.016 27.8336C115.468 24.7517 115.932 21.2977 115.345 17.9429C114.758 14.588 113.149 11.4957 110.736 9.0875C108.325 6.67937 105.227 5.07266 101.867 4.48666C98.507 3.90061 95.0476 4.36372 91.9606 5.81283C88.8736 7.2619 86.3099 9.62647 84.6183 12.584C82.9267 15.5414 82.1903 18.9478 82.5094 22.3386L82.4282 22.2531C82.6685 25.0876 82.2863 27.9404 81.3082 30.6122C80.3301 33.284 78.7792 35.7104 76.7649 37.7221C74.7501 39.7333 72.3198 41.2818 69.6439 42.2583C66.9674 43.2348 64.1103 43.6164 61.2712 43.3766L61.3523 43.4621C58.9396 43.2195 56.5025 43.5152 54.2182 44.3279C51.934 45.1402 49.8588 46.4497 48.1434 48.1611C46.4279 49.8724 45.1149 51.9434 44.2991 54.2236C43.4838 56.5037 43.1858 58.936 43.427 61.3454L43.3458 61.2644C43.5847 64.0985 43.2012 66.9507 42.2228 69.6219C41.2438 72.2927 39.6933 74.7187 37.679 76.7298C35.6646 78.7409 33.235 80.2889 30.5597 81.2663C27.8843 82.2433 25.0277 82.6263 22.189 82.3878L22.2701 82.4688C18.874 82.1502 15.4621 82.8855 12.4999 84.5744C9.53774 86.2632 7.16941 88.8229 5.71803 91.905C4.2666 94.9871 3.80271 98.4409 4.38969 101.796C4.97667 105.151 6.58594 108.243 8.99791 110.651C11.4099 113.059 14.5072 114.666 17.8674 115.252C21.2276 115.838 24.6871 115.375 27.774 113.926C30.8608 112.477 33.4248 110.112 35.1162 107.155C36.8078 104.197 37.5443 100.791 37.2252 97.4L37.3108 97.481C37.071 94.6464 37.4541 91.7943 38.4327 89.1226C39.4107 86.4513 40.9617 84.0253 42.976 82.0138C44.9905 80.0027 47.4204 78.4542 50.0959 77.4777C52.7719 76.5008 55.6286 76.1183 58.4677 76.3577Z" fill="black"/>
<path d="M28.26 67.3255C29.9684 65.61 31.2763 63.5391 32.0905 61.2607C32.9047 58.9823 33.205 56.5523 32.9701 54.1447L33.0557 54.2257C32.8159 51.3907 33.1989 48.5372 34.1779 45.865C35.1569 43.1929 36.7084 40.7664 38.7241 38.7549C40.7397 36.7436 43.1706 35.1956 45.8474 34.2193C48.5243 33.2429 51.3823 32.8618 54.2219 33.1024L54.1363 33.0215C57.5311 33.339 60.9418 32.6033 63.9026 30.9147C66.8634 29.2261 69.2302 26.6668 70.681 23.5858C72.1315 20.5048 72.5948 17.0521 72.008 13.6985C71.4211 10.3449 69.812 7.25373 67.4011 4.84645C64.9902 2.43918 61.8937 0.833012 58.5349 0.247012C55.1761 -0.339034 51.7177 0.123664 48.632 1.57188C45.5459 3.0201 42.9825 5.3834 41.2914 8.3395C39.5998 11.2956 38.8629 14.7006 39.1811 18.0902L39.1 18.0092C39.3398 20.8436 38.9566 23.696 37.9781 26.3674C36.9996 29.0389 35.4492 31.4649 33.4346 33.4763C31.4201 35.4876 28.9902 37.0358 26.3145 38.0125C23.6388 38.9894 20.7818 39.3719 17.9429 39.1325L18.0241 39.2135C15.2502 38.9651 12.4583 39.42 9.90731 40.5356C7.35629 41.6512 5.12858 43.3918 3.43065 45.5959C1.73272 47.7996 0.619517 50.3962 0.194122 53.1439C-0.231227 55.8921 0.0450227 58.7029 0.99727 61.3156C1.94952 63.9288 3.54703 66.2594 5.64169 68.0918C7.73634 69.9247 10.2604 71.1996 12.98 71.799C15.6995 72.3979 18.5266 72.3021 21.1993 71.5204C23.8719 70.7383 26.3036 69.2956 28.269 67.3255H28.26Z" fill="black"/>
<path d="M178.664 75.432V105H167.4V19.88H191.336C194.92 19.88 198.376 20.6053 201.704 22.056C205.032 23.4213 207.976 25.384 210.536 27.944C213.096 30.5893 215.059 33.6187 216.424 37.032C217.875 40.36 218.6 43.9013 218.6 47.656C218.6 51.4107 217.875 54.9947 216.424 58.408C215.059 61.736 213.096 64.68 210.536 67.24C207.976 69.8 205.032 71.8053 201.704 73.256C198.376 74.7067 194.92 75.432 191.336 75.432H178.664ZM178.664 31.528V64.04H191.336C195.773 64.04 199.528 62.4187 202.6 59.176C205.757 56.0187 207.336 52.1787 207.336 47.656C207.336 43.2187 205.757 39.4213 202.6 36.264C199.443 33.1067 195.688 31.528 191.336 31.528H178.664ZM276.865 105V95.272C274.134 98.4293 270.977 100.947 267.393 102.824C263.809 104.701 260.012 105.64 256.001 105.64C251.564 105.64 247.382 104.829 243.457 103.208C239.617 101.587 236.204 99.2827 233.217 96.296C230.23 93.3947 227.884 89.9813 226.177 86.056C224.556 82.0453 223.745 77.864 223.745 73.512C223.745 69.16 224.556 65.0213 226.177 61.096C227.884 57.0853 230.23 53.5867 233.217 50.6C236.204 47.6133 239.617 45.3093 243.457 43.688C247.382 42.0667 251.564 41.256 256.001 41.256C260.097 41.256 263.937 42.1093 267.521 43.816C271.19 45.5227 274.305 47.912 276.865 50.984V42.536H288.385V105H276.865ZM256.001 52.648C253.185 52.648 250.454 53.2027 247.809 54.312C245.249 55.336 243.03 56.7867 241.153 58.664C239.276 60.5413 237.782 62.8027 236.673 65.448C235.649 68.008 235.137 70.696 235.137 73.512C235.137 76.328 235.649 79.016 236.673 81.576C237.782 84.136 239.276 86.3547 241.153 88.232C243.03 90.1093 245.249 91.6027 247.809 92.712C250.454 93.736 253.185 94.248 256.001 94.248C258.817 94.248 261.505 93.736 264.065 92.712C266.625 91.6027 268.844 90.1093 270.721 88.232C272.598 86.3547 274.049 84.136 275.073 81.576C276.182 79.016 276.737 76.328 276.737 73.512C276.737 70.696 276.182 68.008 275.073 65.448C274.049 62.8027 272.598 60.5413 270.721 58.664C268.844 56.7867 266.625 55.336 264.065 54.312C261.505 53.2027 258.817 52.648 256.001 52.648ZM320.35 52.52V105H309.47V52.52H299.87V41H309.47V19.88H320.35V41H329.95V52.52H320.35ZM381.077 105V65.704C381.077 61.6933 379.669 58.28 376.853 55.464C375.573 54.184 374.037 53.16 372.245 52.392C370.538 51.624 368.789 51.24 366.997 51.24C363.157 51.24 359.829 52.648 357.013 55.464C354.197 58.28 352.789 61.6933 352.789 65.704V105H341.525V19.624H352.789V45.48C356.885 41.64 361.621 39.72 366.997 39.72C370.41 39.72 373.653 40.4027 376.725 41.768C379.797 43.048 382.528 44.8827 384.917 47.272C387.221 49.6613 389.013 52.4773 390.293 55.72C391.658 58.8773 392.341 62.2053 392.341 65.704V105H381.077ZM437.406 60.072C437.15 58.536 436.595 57.0853 435.742 55.72C434.121 52.904 430.921 51.496 426.142 51.496C423.582 51.496 421.619 51.7947 420.254 52.392C418.462 53.0747 417.097 54.056 416.158 55.336C415.305 56.616 414.878 58.024 414.878 59.56C414.878 61.4373 415.561 63.144 416.926 64.68C418.377 66.3013 420.723 67.1547 423.966 67.24C429.683 67.496 434.291 68.1787 437.79 69.288C441.374 70.3973 444.105 72.3173 445.982 75.048C447.945 77.7787 448.926 81.6187 448.926 86.568C448.926 91.6027 447.006 95.9547 443.166 99.624C441.289 101.416 439.07 102.867 436.51 103.976C434.035 105.085 431.433 105.64 428.702 105.64H426.782C419.955 105.64 414.451 103.677 410.27 99.752C406.857 96.5947 404.723 92.1573 403.87 86.44H415.262C415.689 88.488 416.542 90.152 417.822 91.432C419.785 93.3093 422.515 94.248 426.014 94.248C426.953 94.248 427.635 94.2053 428.062 94.12C431.049 93.9493 433.395 93.1387 435.102 91.688C436.809 90.152 437.662 88.2747 437.662 86.056C437.662 82.984 436.723 80.9787 434.846 80.04C432.969 79.1013 429.342 78.632 423.966 78.632C417.225 78.632 412.062 76.4987 408.478 72.232C405.577 68.9893 404.126 64.8933 404.126 59.944C404.126 58.8347 404.169 57.9813 404.254 57.384C404.937 51.8373 407.198 47.6133 411.038 44.712C414.963 41.7253 420.126 40.232 426.526 40.232C431.219 40.232 435.315 41.256 438.814 43.304C441.289 44.84 443.422 46.9733 445.214 49.704C446.921 52.4347 448.03 55.848 448.542 59.944L448.286 60.072H437.406Z" fill="black"/>
</svg>
